<svg version="1.1" id="Layer_1" xmlns="http://www.w3.org/2000/svg" xmlns:xlink="http://www.w3.org/1999/xlink" x="0px" y="0px"
	 width="100%" viewBox="0 0 216 300" enable-background="new 0 0 216 300" xml:space="preserve">
<path fill="#FFFFFF" opacity="1.000000" stroke="none" 
	d="
M217.000000,15.999999 
	C217.000000,110.891640 217.000000,205.783279 217.000000,301.000000 
	C184.313156,301.000000 151.625244,301.000000 118.470169,300.672424 
	C118.040413,299.910492 118.077805,299.476105 118.429672,298.897400 
	C125.054070,292.420563 124.400002,284.916290 116.856590,281.052368 
	C111.666977,280.672516 106.833199,280.419556 101.636444,279.914886 
	C101.182312,278.175079 101.012344,276.687042 101.011604,275.198914 
	C100.996231,244.060013 100.905731,212.920670 101.045067,181.782394 
	C101.103149,168.802170 108.532684,161.339615 121.520744,161.086105 
	C139.164948,160.741714 156.821228,160.960251 174.471252,161.086349 
	C175.707550,161.095184 176.935043,162.333740 178.096954,163.464523 
	C178.018173,172.058807 178.082672,180.189987 177.976593,188.318939 
	C177.892548,194.759949 177.599365,201.198227 177.253754,207.925858 
	C177.132172,208.427795 177.155884,208.641602 177.105118,209.148254 
	C176.788300,210.174088 176.545929,210.907074 176.173401,211.901062 
	C175.737518,212.648788 175.431824,213.135529 174.887360,213.781189 
	C174.380676,214.626602 174.112732,215.313065 173.611084,216.088318 
	C173.294998,216.321960 173.212601,216.466858 172.907349,216.755951 
	C171.718109,217.659515 170.751724,218.418900 169.458664,219.293823 
	C168.407562,219.901016 167.683136,220.392654 166.534454,220.934891 
	C163.373688,221.323669 160.644440,221.856049 157.899139,221.958557 
	C152.604019,222.156235 147.299850,222.111099 141.726486,222.003189 
	C149.245667,212.782043 156.940598,203.638153 164.867889,194.700333 
	C169.328674,189.670883 168.057587,180.189117 161.871231,177.057709 
	C156.062988,173.741730 148.947357,178.379517 144.581787,186.092209 
	C135.854553,195.320602 127.376106,204.365753 119.031029,213.532318 
	C115.387749,217.534256 112.201256,221.959930 108.471336,225.872879 
	C104.826553,229.696518 103.981995,233.980850 106.303696,238.384460 
	C108.541641,242.629196 112.670563,244.174561 117.536369,244.032883 
	C132.123154,243.608124 146.713852,243.311157 161.303940,243.007721 
	C171.223465,242.801376 179.716827,239.122528 186.979980,232.506226 
	C196.326889,223.991745 198.629974,212.615921 198.901550,200.817657 
	C199.288498,184.005997 198.915939,167.178085 199.055634,150.358688 
	C199.093292,145.824280 197.534042,142.730469 192.855667,141.052002 
	C190.759369,140.616501 189.016647,140.023300 187.280869,140.043015 
	C163.535614,140.312531 139.788193,140.539886 116.049759,141.122238 
	C111.996696,141.221664 107.983078,142.928421 103.592422,143.945419 
	C101.200127,145.199539 99.166649,146.400864 96.854980,147.752686 
	C93.666107,150.935165 90.755424,153.967178 87.609062,157.090149 
	C87.291023,157.328003 87.208656,157.474899 86.891052,157.777771 
	C86.398827,158.608551 86.141830,159.283371 85.578613,160.127396 
	C84.237144,162.864548 83.201897,165.432495 82.094299,168.344528 
	C81.798279,169.331390 81.574593,169.974167 81.225227,170.916245 
	C81.126839,171.430222 81.154121,171.644897 81.106857,172.208069 
	C80.807831,173.914749 80.583359,175.272903 80.230141,176.926147 
	C80.128448,177.434158 80.155510,177.647079 80.106125,178.264755 
	C80.029663,212.316803 80.029663,245.964096 80.029663,280.000000 
	C75.666145,280.000000 71.858261,279.748962 68.102356,280.082794 
	C65.315193,280.330566 62.595520,281.337585 59.611717,282.092224 
	C59.377647,282.178040 59.130600,282.611145 58.878963,282.778137 
	C58.033165,283.963196 57.439003,284.981201 56.536655,286.350037 
	C56.874523,290.140289 57.520576,293.579712 58.142990,297.270416 
	C58.405735,297.625610 58.692123,297.729523 59.244438,297.942474 
	C59.968548,298.381653 60.426727,298.711731 60.932777,299.365906 
	C60.987095,300.126617 60.993549,300.563324 61.000000,301.000000 
	C41.034912,301.000000 21.069826,301.000000 1.000000,301.000000 
	C1.000000,237.645813 1.000000,174.291565 1.347473,110.577141 
	C2.123681,110.893883 2.720702,111.517151 2.956114,112.255692 
	C7.007962,124.967247 21.349751,138.431763 37.563072,137.087891 
	C44.016735,136.552963 50.551796,137.004242 57.049793,136.998795 
	C63.392044,136.993484 67.015549,133.324158 66.999931,126.935921 
	C66.984566,120.648071 63.280254,117.031982 56.777962,117.004730 
	C51.279747,116.981697 45.762291,117.292656 40.287182,116.936180 
	C30.157749,116.276657 22.720911,110.990982 22.234432,102.243607 
	C21.424339,87.677353 22.013584,73.033279 22.013584,58.000000 
	C34.777233,58.000000 47.068787,58.180573 59.351341,57.926304 
	C65.808380,57.792633 71.207771,59.749012 76.035248,64.367538 
	C77.456123,67.099701 79.141640,69.379967 79.924683,71.936638 
	C82.834343,81.436867 80.274651,91.207115 80.665543,100.820381 
	C73.617928,94.102180 66.975441,87.324127 60.168282,80.715714 
	C55.111084,75.806175 47.622185,75.604210 43.475239,80.013519 
	C39.335239,84.415436 39.980350,90.471161 45.146564,95.639526 
	C57.507618,108.005753 69.870003,120.370651 82.233734,132.734207 
	C88.504982,139.005356 94.545052,138.984863 100.875748,132.628052 
	C139.587921,93.756111 178.292740,54.876827 217.000000,15.999999 
z"/>
<path fill="#95C11F" opacity="1.000000" stroke="none" 
	d="
M166.958710,220.884277 
	C167.683136,220.392654 168.407562,219.901016 169.612305,219.685455 
	C171.486374,219.965866 172.880112,219.970200 174.273849,219.974548 
	C173.892639,218.853607 173.511429,217.732681 173.130219,216.611740 
	C173.212601,216.466858 173.294998,216.321960 173.995667,216.081985 
	C175.238708,215.619171 175.863464,215.251434 176.488220,214.883728 
	C176.034195,214.463242 175.580154,214.042740 175.126114,213.622253 
	C175.431824,213.135529 175.737518,212.648788 176.586914,212.023712 
	C177.932053,211.560806 178.733505,211.236221 179.534973,210.911652 
	C178.749847,210.226242 177.964722,209.540833 177.179581,208.855423 
	C177.155884,208.641602 177.132172,208.427795 177.711090,208.052490 
	C179.208649,206.680603 180.862045,205.482162 180.881287,204.258026 
	C181.074341,191.974396 181.094635,179.684814 180.874191,167.402115 
	C180.847580,165.919174 179.110809,164.466934 178.166641,163.000458 
	C176.935043,162.333740 175.707550,161.095184 174.471252,161.086349 
	C156.821228,160.960251 139.164948,160.741714 121.520744,161.086105 
	C108.532684,161.339615 101.103149,168.802170 101.045067,181.782394 
	C100.905731,212.920670 100.996231,244.060013 101.011604,275.198914 
	C101.012344,276.687042 101.182312,278.175079 101.656441,280.319275 
	C104.564316,283.798676 113.808456,283.922913 117.212425,281.179291 
	C124.400002,284.916290 125.054070,292.420563 118.066650,298.890015 
	C116.592773,299.684631 115.796387,300.342316 115.000000,301.000000 
	C98.312439,301.000000 81.624878,301.000000 64.410995,300.647980 
	C62.884758,299.877899 61.884834,299.459869 60.884911,299.041840 
	C60.426727,298.711731 59.968548,298.381653 59.152939,297.767273 
	C58.632797,297.264771 58.423168,297.110168 58.166630,297.019135 
	C57.520576,293.579712 56.874523,290.140289 56.954453,286.349091 
	C58.674030,285.692963 59.667629,285.388611 60.661224,285.084259 
	C60.151012,284.259888 59.640804,283.435516 59.130600,282.611145 
	C59.130600,282.611145 59.377647,282.178040 60.047867,282.098083 
	C66.330353,282.340729 71.944191,282.921021 77.554283,282.886871 
	C80.787773,282.867218 83.040993,281.137695 83.033386,277.254761 
	C82.971466,245.639664 83.037056,214.024216 82.878105,182.409805 
	C82.870461,180.888733 81.120941,179.376404 80.182579,177.860001 
	C80.155510,177.647079 80.128448,177.434158 80.662094,177.054733 
	C82.111832,176.386215 83.000877,175.884186 83.889923,175.382156 
	C82.987083,174.207962 82.084244,173.033752 81.181404,171.859558 
	C81.154121,171.644897 81.126839,171.430222 81.609917,171.048538 
	C82.955391,170.573563 83.790504,170.265579 84.625618,169.957611 
	C83.805962,169.305222 82.986305,168.652847 82.166649,168.000458 
	C83.201897,165.432495 84.237144,162.864548 85.958160,160.132233 
	C87.258774,159.601608 87.873634,159.235352 88.488487,158.869095 
	C88.034424,158.453339 87.580353,158.037567 87.126282,157.621811 
	C87.208656,157.474899 87.291023,157.328003 88.004509,157.090149 
	C94.270111,157.103973 95.435654,151.812302 98.508217,148.823456 
	C98.049866,148.416367 97.591522,148.009277 97.133171,147.602188 
	C99.166649,146.400864 101.200127,145.199539 103.841904,144.247498 
	C106.705467,144.332062 108.958420,144.072891 111.216347,144.017929 
	C126.163368,143.654160 141.110184,143.245804 156.059647,143.029877 
	C166.717468,142.875946 177.380539,143.081024 188.038086,142.918304 
	C189.771332,142.891815 191.488083,141.786133 193.212463,141.179276 
	C197.534042,142.730469 199.093292,145.824280 199.055634,150.358688 
	C198.915939,167.178085 199.288498,184.005997 198.901550,200.817657 
	C198.629974,212.615921 196.326889,223.991745 186.979980,232.506226 
	C179.716827,239.122528 171.223465,242.801376 161.303940,243.007721 
	C146.713852,243.311157 132.123154,243.608124 117.536369,244.032883 
	C112.670563,244.174561 108.541641,242.629196 106.303696,238.384460 
	C103.981995,233.980850 104.826553,229.696518 108.471336,225.872879 
	C112.201256,221.959930 115.387749,217.534256 119.031029,213.532318 
	C127.376106,204.365753 135.854553,195.320602 144.971893,186.103668 
	C146.163193,185.977448 146.767059,186.157944 147.143738,185.942062 
	C152.184143,183.053329 157.192810,180.109222 162.209351,177.178864 
	C168.057587,180.189117 169.328674,189.670883 164.867889,194.700333 
	C156.940598,203.638153 149.245667,212.782043 141.746567,222.408051 
	C142.794830,223.644867 143.535172,224.872391 144.307678,224.892990 
	C150.216766,225.050552 156.157867,225.277466 162.029709,224.781357 
	C163.770035,224.634308 165.320984,222.245712 166.958710,220.884277 
z"/>
<path fill="#FFFFFF" opacity="1.000000" stroke="none" 
	d="
M1.000000,40.000000 
	C1.000000,27.023640 1.000000,14.047278 1.000000,1.000000 
	C68.020882,1.000000 135.041779,1.000000 202.432083,1.331971 
	C201.270126,2.873452 199.599640,3.943600 198.227829,5.312932 
	C167.251205,36.233475 136.323959,67.203529 105.301186,98.077621 
	C103.954132,99.418221 101.785782,99.933571 100.016998,100.439110 
	C103.683495,90.739029 101.473503,81.226379 100.981209,71.786423 
	C100.562508,63.757637 97.398720,56.836250 91.909874,50.579319 
	C84.825134,42.601727 76.117271,36.978508 65.928062,37.269424 
	C44.285835,37.887341 22.395077,33.696236 1.000000,40.000000 
z"/>
<path fill="#0A31BF" opacity="1.000000" stroke="none" 
	d="
M100.000015,100.833344 
	C101.785782,99.933571 103.954132,99.418221 105.301186,98.077621 
	C136.323959,67.203529 167.251205,36.233475 198.227829,5.312932 
	C199.599640,3.943600 201.270126,2.873452 202.900742,1.331971 
	C206.030594,1.000000 209.061188,1.000000 212.546204,1.373330 
	C214.333740,3.164441 215.666870,4.582222 217.000000,6.000001 
	C217.000000,9.030593 217.000000,12.061187 217.000000,15.545889 
	C178.292740,54.876827 139.587921,93.756111 100.875748,132.628052 
	C94.545052,138.984863 88.504982,139.005356 82.233734,132.734207 
	C69.870003,120.370651 57.507618,108.005753 45.146564,95.639526 
	C39.980350,90.471161 39.335239,84.415436 43.475239,80.013519 
	C47.622185,75.604210 55.111084,75.806175 60.168282,80.715714 
	C66.975441,87.324127 73.617928,94.102180 80.932892,100.931610 
	C81.745338,101.370544 81.955994,101.685280 82.179947,102.334900 
	C83.824287,104.313034 85.315445,106.135971 87.127495,107.546745 
	C88.789665,108.840836 92.020485,110.942474 92.448029,110.525024 
	C94.620857,108.403572 96.106827,105.578621 97.959053,102.711021 
	C98.723175,101.892441 99.361595,101.362892 100.000015,100.833344 
z"/>
<path fill="#F39200" opacity="1.000000" stroke="none" 
	d="
M1.000000,40.468658 
	C22.395077,33.696236 44.285835,37.887341 65.928062,37.269424 
	C76.117271,36.978508 84.825134,42.601727 91.902390,50.967964 
	C93.863701,58.142986 96.571671,64.526283 97.305290,71.128960 
	C98.136002,78.605377 97.528076,86.306541 96.890846,93.854706 
	C96.554947,97.833504 92.063492,100.505447 88.508286,99.936234 
	C84.066483,99.225060 85.231285,95.795532 84.974915,92.945892 
	C84.362289,86.136299 84.070229,79.249023 82.746155,72.572090 
	C82.043381,69.028191 81.066360,64.524307 75.885620,64.042526 
	C71.207771,59.749012 65.808380,57.792633 59.351341,57.926304 
	C47.068787,58.180573 34.777233,58.000000 22.013584,58.000000 
	C22.013584,73.033279 21.424339,87.677353 22.234432,102.243607 
	C22.720911,110.990982 30.157749,116.276657 40.287182,116.936180 
	C45.762291,117.292656 51.279747,116.981697 56.777962,117.004730 
	C63.280254,117.031982 66.984566,120.648071 66.999931,126.935921 
	C67.015549,133.324158 63.392044,136.993484 57.049793,136.998795 
	C50.551796,137.004242 44.016735,136.552963 37.563072,137.087891 
	C21.349751,138.431763 7.007962,124.967247 2.956114,112.255692 
	C2.720702,111.517151 2.123681,110.893883 1.347473,110.108482 
	C1.000000,86.979103 1.000000,63.958210 1.000000,40.468658 
z"/>
<path fill="#FFFFFF" opacity="1.000000" stroke="none" 
	d="
M217.000000,5.500039 
	C215.666870,4.582222 214.333740,3.164441 213.000305,1.373330 
	C214.254913,1.000000 215.509827,1.000000 217.000000,1.000000 
	C217.000000,2.330387 217.000000,3.665231 217.000000,5.500039 
z"/>
<path fill="#95C11F" opacity="1.000000" stroke="none" 
	d="
M60.932777,299.365906 
	C61.884834,299.459869 62.884758,299.877899 63.942337,300.647980 
	C63.250000,301.000000 62.500000,301.000000 61.375000,301.000000 
	C60.993549,300.563324 60.987095,300.126617 60.932777,299.365906 
z"/>
<path fill="#95C11F" opacity="1.000000" stroke="none" 
	d="
M115.375000,301.000000 
	C115.796387,300.342316 116.592773,299.684631 117.752182,299.034363 
	C118.077805,299.476105 118.040413,299.910492 118.001511,300.672424 
	C117.250000,301.000000 116.500000,301.000000 115.375000,301.000000 
z"/>
<path fill="#95C11F" opacity="1.000000" stroke="none" 
	d="
M80.106125,178.264755 
	C81.120941,179.376404 82.870461,180.888733 82.878105,182.409805 
	C83.037056,214.024216 82.971466,245.639664 83.033386,277.254761 
	C83.040993,281.137695 80.787773,282.867218 77.554283,282.886871 
	C71.944191,282.921021 66.330353,282.340729 60.281937,282.012268 
	C62.595520,281.337585 65.315193,280.330566 68.102356,280.082794 
	C71.858261,279.748962 75.666145,280.000000 80.029663,280.000000 
	C80.029663,245.964096 80.029663,212.316803 80.106125,178.264755 
z"/>
<path fill="#F39200" opacity="1.000000" stroke="none" 
	d="
M76.035248,64.367538 
	C81.066360,64.524307 82.043381,69.028191 82.746155,72.572090 
	C84.070229,79.249023 84.362289,86.136299 84.974915,92.945892 
	C85.231285,95.795532 84.066483,99.225060 88.508286,99.936234 
	C92.063492,100.505447 96.554947,97.833504 96.890846,93.854706 
	C97.528076,86.306541 98.136002,78.605377 97.305290,71.128960 
	C96.571671,64.526283 93.863701,58.142986 92.034973,51.274185 
	C97.398720,56.836250 100.562508,63.757637 100.981209,71.786423 
	C101.473503,81.226379 103.683495,90.739029 100.016998,100.439110 
	C99.361595,101.362892 98.723175,101.892441 97.597672,102.897903 
	C92.129272,102.915894 87.147957,102.457954 82.166649,102.000015 
	C81.955994,101.685280 81.745338,101.370544 81.267334,100.944572 
	C80.274651,91.207115 82.834343,81.436867 79.924683,71.936638 
	C79.141640,69.379967 77.456123,67.099701 76.035248,64.367538 
z"/>
<path fill="#95C11F" opacity="1.000000" stroke="none" 
	d="
M192.855667,141.052002 
	C191.488083,141.786133 189.771332,142.891815 188.038086,142.918304 
	C177.380539,143.081024 166.717468,142.875946 156.059647,143.029877 
	C141.110184,143.245804 126.163368,143.654160 111.216347,144.017929 
	C108.958420,144.072891 106.705467,144.332062 104.200722,144.194702 
	C107.983078,142.928421 111.996696,141.221664 116.049759,141.122238 
	C139.788193,140.539886 163.535614,140.312531 187.280869,140.043015 
	C189.016647,140.023300 190.759369,140.616501 192.855667,141.052002 
z"/>
<path fill="#95C11F" opacity="1.000000" stroke="none" 
	d="
M178.096954,163.464523 
	C179.110809,164.466934 180.847580,165.919174 180.874191,167.402115 
	C181.094635,179.684814 181.074341,191.974396 180.881287,204.258026 
	C180.862045,205.482162 179.208649,206.680603 177.856384,207.764343 
	C177.599365,201.198227 177.892548,194.759949 177.976593,188.318939 
	C178.082672,180.189987 178.018173,172.058807 178.096954,163.464523 
z"/>
<path fill="#95C11F" opacity="1.000000" stroke="none" 
	d="
M166.534454,220.934875 
	C165.320984,222.245712 163.770035,224.634308 162.029709,224.781357 
	C156.157867,225.277466 150.216766,225.050552 144.307678,224.892990 
	C143.535172,224.872391 142.794830,223.644867 142.019516,222.571503 
	C147.299850,222.111099 152.604019,222.156235 157.899139,221.958557 
	C160.644440,221.856049 163.373688,221.323669 166.534454,220.934875 
z"/>
<path fill="#95C11F" opacity="1.000000" stroke="none" 
	d="
M161.871231,177.057709 
	C157.192810,180.109222 152.184143,183.053329 147.143738,185.942062 
	C146.767059,186.157944 146.163193,185.977448 145.274841,185.969757 
	C148.947357,178.379517 156.062988,173.741730 161.871231,177.057709 
z"/>
<path fill="#95C11F" opacity="1.000000" stroke="none" 
	d="
M116.856590,281.052368 
	C113.808456,283.922913 104.564316,283.798676 102.019417,280.570984 
	C106.833199,280.419556 111.666977,280.672516 116.856590,281.052368 
z"/>
<path fill="#95C11F" opacity="1.000000" stroke="none" 
	d="
M96.854980,147.752686 
	C97.591522,148.009277 98.049866,148.416367 98.508217,148.823456 
	C95.435654,151.812302 94.270111,157.103973 88.240181,156.999176 
	C90.755424,153.967178 93.666107,150.935165 96.854980,147.752686 
z"/>
<path fill="#95C11F" opacity="1.000000" stroke="none" 
	d="
M172.907349,216.755951 
	C173.511429,217.732681 173.892639,218.853607 174.273849,219.974548 
	C172.880112,219.970200 171.486374,219.965866 169.938995,219.569916 
	C170.751724,218.418900 171.718109,217.659515 172.907349,216.755951 
z"/>
<path fill="#95C11F" opacity="1.000000" stroke="none" 
	d="
M81.106857,172.208069 
	C82.084244,173.033752 82.987083,174.207962 83.889923,175.382156 
	C83.000877,175.884186 82.111832,176.386215 80.790833,176.759644 
	C80.583359,175.272903 80.807831,173.914749 81.106857,172.208069 
z"/>
<path fill="#95C11F" opacity="1.000000" stroke="none" 
	d="
M58.878960,282.778137 
	C59.640804,283.435516 60.151012,284.259888 60.661224,285.084259 
	C59.667629,285.388611 58.674030,285.692963 57.262634,285.998291 
	C57.439003,284.981201 58.033165,283.963196 58.878960,282.778137 
z"/>
<path fill="#95C11F" opacity="1.000000" stroke="none" 
	d="
M177.105118,209.148254 
	C177.964722,209.540833 178.749847,210.226242 179.534973,210.911652 
	C178.733505,211.236221 177.932053,211.560806 176.717072,211.762726 
	C176.545929,210.907074 176.788300,210.174088 177.105118,209.148254 
z"/>
<path fill="#95C11F" opacity="1.000000" stroke="none" 
	d="
M82.094299,168.344528 
	C82.986305,168.652847 83.805962,169.305222 84.625618,169.957611 
	C83.790504,170.265579 82.955391,170.573563 81.735596,170.749252 
	C81.574593,169.974167 81.798279,169.331390 82.094299,168.344528 
z"/>
<path fill="#95C11F" opacity="1.000000" stroke="none" 
	d="
M174.887360,213.781189 
	C175.580154,214.042740 176.034195,214.463242 176.488220,214.883728 
	C175.863464,215.251434 175.238708,215.619171 174.229370,215.993225 
	C174.112732,215.313065 174.380676,214.626602 174.887360,213.781189 
z"/>
<path fill="#95C11F" opacity="1.000000" stroke="none" 
	d="
M86.891052,157.777771 
	C87.580353,158.037567 88.034424,158.453339 88.488487,158.869095 
	C87.873634,159.235352 87.258774,159.601608 86.264381,159.963043 
	C86.141830,159.283371 86.398827,158.608551 86.891052,157.777771 
z"/>
<path fill="#95C11F" opacity="1.000000" stroke="none" 
	d="
M58.142990,297.270416 
	C58.423168,297.110168 58.632797,297.264771 58.887012,297.658203 
	C58.692123,297.729523 58.405735,297.625610 58.142990,297.270416 
z"/>
<path fill="#FFFFFF" opacity="1.000000" stroke="none" 
	d="
M82.179947,102.334892 
	C87.147957,102.457954 92.129272,102.915894 97.471970,103.186951 
	C96.106827,105.578621 94.620857,108.403572 92.448029,110.525024 
	C92.020485,110.942474 88.789665,108.840836 87.127495,107.546745 
	C85.315445,106.135971 83.824287,104.313034 82.179947,102.334892 
z"/>
</svg>