<?xml version="1.0" encoding="UTF-8"?>
<svg id="Capa_2" data-name="Capa 2" xmlns="http://www.w3.org/2000/svg" viewBox="0 0 281.88 403.11">
  <defs>
    <style>
      .cls-1 {
        fill: #94be26;
      }
    </style>
  </defs>
  <g id="Capa_1-2" data-name="Capa 1">
    <path class="cls-1" d="M63.91,206.66c14.87-21.75,37.37-49.57,69.97-76.02,22.67-18.39,44.63-31.59,63.24-41.04-23.92,19.02-56.7,49.66-85.52,94.75-23.14,36.2-36.45,70.33-44.32,96.31h77.37c12.27-.59,29.38-2.84,48.44-10.09,27.75-10.56,46.35-26.68,56.51-37,5.05-5.99,10.45-13.35,15.47-22.2,9.98-17.59,14.57-34.2,16.82-46.42V.8H152.04c-13.21-1.37-57.31-4.27-97.55,24.22-8.02,5.68-29.35,21.18-43.06,50.46C3.12,93.25,.72,109.44,0,119.88V403.11H30.95V146.12c-.57-9.09-1.4-40.46,20.18-69.97,27.12-37.06,68.49-42.3,75.41-43.06h125.75v114.37c-.66,8.93-4.4,45.46-34.98,74-22.42,20.93-47.45,26.53-57.86,28.26h-59.2v-32.96h47.77c7.59-.67,24.83-3.28,41.04-16.15,25.66-20.37,28.51-50.39,28.93-55.84V63.37h-77.03c-6.98,.28-29.58,2.06-49.45,19.51-26.08,22.91-26.87,54.72-26.91,59.88-.22,21.3-.45,42.61-.67,63.91Z"/>
  </g>
</svg>