<?xml version="1.0" encoding="UTF-8"?>
<svg id="Capa_2" data-name="Capa 2" xmlns="http://www.w3.org/2000/svg" viewBox="0 0 424.88 75.48">
  <defs>
    <style>
      .cls-1 {
        stroke: #94be26;
        stroke-width: 2px;
      }

      .cls-1, .cls-2, .cls-3 {
        stroke-miterlimit: 10;
      }

      .cls-1, .cls-4 {
        fill: #94be26;
      }

      .cls-2 {
        fill: #184894;
        stroke: #184894;
      }

      .cls-2, .cls-3 {
        stroke-width: 4px;
      }

      .cls-3 {
        fill: #f3900e;
        stroke: #f29010;
      }
    </style>
  </defs>
  <g id="Capa_1-2" data-name="Capa 1">
    <g>
      <path class="cls-4" d="M194.92,43.15c2.43-3.56,6.12-8.11,11.45-12.44,3.71-3.01,7.31-5.17,10.35-6.72-3.92,3.11-9.28,8.13-14,15.51-3.79,5.93-5.97,11.51-7.25,15.76h12.66c2.01-.1,4.81-.46,7.93-1.65,4.54-1.73,7.59-4.37,9.25-6.06,.83-.98,1.71-2.19,2.53-3.63,1.63-2.88,2.39-5.6,2.75-7.6V9.45h-21.25c-2.16-.22-9.38-.7-15.97,3.96-1.31,.93-4.8,3.47-7.05,8.26-1.36,2.91-1.75,5.56-1.87,7.27v46.36h5.07V33.24c-.09-1.49-.23-6.62,3.3-11.45,4.44-6.07,11.21-6.92,12.34-7.05h20.58v18.72c-.11,1.46-.72,7.44-5.73,12.11-3.67,3.42-7.77,4.34-9.47,4.62h-9.69v-5.4h7.82c1.24-.11,4.06-.54,6.72-2.64,4.2-3.33,4.67-8.25,4.73-9.14v-13.32h-12.61c-1.14,.05-4.84,.34-8.09,3.19-4.27,3.75-4.4,8.96-4.4,9.8-.04,3.49-.07,6.97-.11,10.46Z"/>
      <path class="cls-1" d="M353.38,4.04c-4.42,3.2-8.24,7.28-11.24,11.88,0,0-1.87-2.8-4-4.43l1.27-1.58c1.08,.98,2.03,2.09,2.82,3.32,2.67-4.11,6.01-7.79,9.86-10.88l1.3,1.69Z"/>
      <path class="cls-3" d="M46.29,55.7l5.39,2.83c-1.77,3.47-3.81,6.28-6.13,8.41-2.32,2.13-4.93,3.76-7.82,4.87-2.9,1.11-6.18,1.67-9.84,1.67-8.11,0-14.46-2.66-19.03-7.98-4.57-5.32-6.86-11.33-6.86-18.03,0-6.31,1.94-11.93,5.81-16.86,4.91-6.28,11.48-9.42,19.72-9.42s15.25,3.22,20.31,9.64c3.6,4.54,5.43,10.21,5.49,17H8.58c.12,5.78,1.97,10.51,5.54,14.2,3.57,3.69,7.98,5.54,13.22,5.54,2.53,0,4.99-.44,7.39-1.32,2.39-.88,4.43-2.05,6.11-3.51,1.68-1.46,3.49-3.81,5.45-7.06Zm0-13.39c-.85-3.41-2.1-6.14-3.73-8.18s-3.79-3.69-6.47-4.94c-2.69-1.25-5.51-1.87-8.47-1.87-4.88,0-9.08,1.57-12.58,4.71-2.56,2.29-4.5,5.71-5.81,10.28H46.29Z"/>
      <path class="cls-3" d="M113.52,32.8l-5.07,3.15c-4.38-5.82-10.36-8.73-17.94-8.73-6.06,0-11.08,1.95-15.09,5.84s-6,8.63-6,14.2c0,3.62,.92,7.03,2.76,10.23,1.84,3.2,4.37,5.68,7.58,7.44,3.21,1.77,6.81,2.65,10.8,2.65,7.3,0,13.27-2.91,17.89-8.73l5.07,3.34c-2.38,3.58-5.57,6.36-9.57,8.33-4.01,1.97-8.57,2.96-13.69,2.96-7.86,0-14.38-2.5-19.56-7.49-5.18-5-7.77-11.08-7.77-18.24,0-4.81,1.21-9.28,3.63-13.41,2.42-4.13,5.75-7.35,9.99-9.67,4.23-2.32,8.97-3.47,14.21-3.47,3.29,0,6.47,.5,9.53,1.51,3.06,1.01,5.66,2.32,7.79,3.93,2.13,1.62,3.95,3.67,5.44,6.17Z"/>
      <path class="cls-3" d="M149.35,21.19c7.66,0,14.01,2.77,19.05,8.32,4.58,5.06,6.87,11.05,6.87,17.96s-2.42,13.02-7.26,18.21c-4.84,5.2-11.06,7.79-18.66,7.79s-13.87-2.6-18.7-7.79c-4.84-5.19-7.26-11.27-7.26-18.21s2.29-12.86,6.87-17.92c5.04-5.58,11.4-8.36,19.09-8.36Zm-.02,6.26c-5.32,0-9.89,1.97-13.71,5.9-3.82,3.93-5.73,8.68-5.73,14.26,0,3.6,.87,6.95,2.61,10.05,1.74,3.11,4.1,5.51,7.06,7.2,2.97,1.69,6.22,2.54,9.77,2.54s6.8-.85,9.77-2.54c2.97-1.69,5.32-4.09,7.06-7.2,1.74-3.11,2.61-6.46,2.61-10.05,0-5.58-1.92-10.33-5.76-14.26-3.84-3.93-8.4-5.9-13.69-5.9Z"/>
      <path class="cls-2" d="M287.19,32.8l-5.07,3.15c-4.38-5.82-10.36-8.73-17.94-8.73-6.06,0-11.08,1.95-15.09,5.84s-6,8.63-6,14.2c0,3.62,.92,7.03,2.76,10.23,1.84,3.2,4.37,5.68,7.58,7.44,3.21,1.77,6.81,2.65,10.8,2.65,7.3,0,13.27-2.91,17.89-8.73l5.07,3.34c-2.38,3.58-5.57,6.36-9.57,8.33-4.01,1.97-8.57,2.96-13.69,2.96-7.86,0-14.38-2.5-19.56-7.49-5.18-5-7.77-11.08-7.77-18.24,0-4.81,1.21-9.28,3.63-13.41,2.42-4.13,5.75-7.35,9.99-9.67,4.23-2.32,8.97-3.47,14.21-3.47,3.29,0,6.47,.5,9.53,1.51,3.06,1.01,5.66,2.32,7.79,3.93,2.13,1.62,3.95,3.67,5.44,6.17Z"/>
      <path class="cls-2" d="M301.7,2c1.46,0,2.7,.52,3.73,1.55,1.03,1.04,1.55,2.29,1.55,3.75s-.52,2.67-1.55,3.7c-1.03,1.04-2.28,1.55-3.73,1.55s-2.66-.52-3.69-1.55c-1.03-1.04-1.55-2.27-1.55-3.7s.52-2.71,1.55-3.75c1.03-1.04,2.26-1.55,3.69-1.55Zm-3.18,20.47h6.4v49.72h-6.4V22.47Z"/>
      <path class="cls-2" d="M341.76,21.19c7.66,0,14.01,2.77,19.05,8.32,4.58,5.06,6.87,11.05,6.87,17.96s-2.42,13.02-7.26,18.21c-4.84,5.2-11.06,7.79-18.66,7.79s-13.86-2.6-18.7-7.79c-4.84-5.19-7.26-11.27-7.26-18.21s2.29-12.86,6.87-17.92c5.04-5.58,11.4-8.36,19.09-8.36Zm-.02,6.26c-5.32,0-9.89,1.97-13.71,5.9-3.82,3.93-5.73,8.68-5.73,14.26,0,3.6,.87,6.95,2.61,10.05,1.74,3.11,4.1,5.51,7.06,7.2,2.97,1.69,6.22,2.54,9.77,2.54s6.8-.85,9.77-2.54c2.97-1.69,5.32-4.09,7.06-7.2,1.74-3.11,2.61-6.46,2.61-10.05,0-5.58-1.92-10.33-5.76-14.26-3.84-3.93-8.4-5.9-13.69-5.9Z"/>
      <path class="cls-2" d="M379.51,22.47h6.4v8.91c2.56-3.41,5.39-5.96,8.5-7.65,3.11-1.69,6.49-2.54,10.15-2.54s7.02,.94,9.9,2.83c2.88,1.89,5,4.43,6.38,7.63,1.37,3.2,2.06,8.18,2.06,14.94v25.59h-6.4v-23.72c0-5.73-.24-9.55-.71-11.47-.74-3.29-2.16-5.77-4.27-7.43-2.1-1.66-4.85-2.49-8.23-2.49-3.87,0-7.34,1.28-10.4,3.84-3.06,2.56-5.08,5.73-6.06,9.51-.61,2.47-.91,6.98-.91,13.53v18.24h-6.4V22.47Z"/>
    </g>
  </g>
</svg>